<?xml version="1.0" encoding="utf-8"?>
<!-- Generator: Adobe Illustrator 24.0.0, SVG Export Plug-In . SVG Version: 6.00 Build 0)  -->
<svg version="1.1" id="Calque_1" xmlns="http://www.w3.org/2000/svg" xmlns:xlink="http://www.w3.org/1999/xlink" x="0px" y="0px"
	 viewBox="0 0 100 100" style="enable-background:new 0 0 100 100;" xml:space="preserve">
<image style="display:none;overflow:visible;" width="270" height="270" xlink:href="../../../../../../../Downloads/yu-gi-oh-casquette-noire-puzzle-du-millenium.jpg"  transform="matrix(0.3704 0 0 0.3704 0 0)">
</image>
<path d="M67,24.2c1.1-4.1,0.8-8.8-2.5-13.8c-2.2-3.3-5.4-5.8-9.3-6.9C43.8,0.6,33.5,9.1,33.5,20c0,1.6,0.2,3.1,0.6,4.5L2.9,24.9
	l47,66L98,24.1L67,24.2z M39.4,20c0-6.2,5.1-11.3,11.4-11.1c5.7,0.1,10.4,4.7,10.8,10.4c0.1,1.8-0.2,3.5-0.8,5l-7.9,0l-12.6,0.2
	C39.7,23.1,39.4,21.6,39.4,20z"/>
</svg>
